<svg xmlns="http://www.w3.org/2000/svg" version="1.1" xmlns:xlink="http://www.w3.org/1999/xlink" width="900" height="900"><svg id="SvgjsSvg1081" viewBox="0 0 900 900" width="900" height="900" xmlns="http://www.w3.org/2000/svg" xmlns:xlink="http://www.w3.org/1999/xlink" version="1.1"><rect x="0" y="0" width="900" height="900" fill="#ff0ada" style="--darkreader-inline-fill: var(--darkreader-background-ff0ada, #c400a6);" data-darkreader-inline-fill=""></rect><defs><linearGradient id="SvgjsLinearGradient1080" x1="0%" y1="0%" x2="100%" y2="100%"><stop offset="30%" stop-color="#000000" stop-opacity="1" style="--darkreader-inline-stopcolor: var(--darkreader-background-000000, #000000);" data-darkreader-inline-stopcolor=""></stop><stop offset="70%" stop-color="#000000" stop-opacity="1" style="--darkreader-inline-stopcolor: var(--darkreader-background-000000, #000000);" data-darkreader-inline-stopcolor=""></stop></linearGradient></defs><defs><linearGradient id="SvgjsLinearGradient1079" x1="0%" y1="0%" x2="100%" y2="100%"><stop offset="30%" stop-color="#000000" stop-opacity="1" style="--darkreader-inline-stopcolor: var(--darkreader-background-000000, #000000);" data-darkreader-inline-stopcolor=""></stop><stop offset="70%" stop-color="#880070" stop-opacity="1" style="--darkreader-inline-stopcolor: var(--darkreader-background-880070, #6d005a);" data-darkreader-inline-stopcolor=""></stop></linearGradient></defs><defs><linearGradient id="SvgjsLinearGradient1078" x1="0%" y1="0%" x2="100%" y2="100%"><stop offset="30%" stop-color="#c300a4" stop-opacity="1" style="--darkreader-inline-stopcolor: var(--darkreader-background-c300a4, #9c0083);" data-darkreader-inline-stopcolor=""></stop><stop offset="70%" stop-color="#880070" stop-opacity="1" style="--darkreader-inline-stopcolor: var(--darkreader-background-880070, #6d005a);" data-darkreader-inline-stopcolor=""></stop></linearGradient></defs><defs><linearGradient id="SvgjsLinearGradient1077" x1="0%" y1="0%" x2="100%" y2="100%"><stop offset="30%" stop-color="#c300a4" stop-opacity="1" style="--darkreader-inline-stopcolor: var(--darkreader-background-c300a4, #9c0083);" data-darkreader-inline-stopcolor=""></stop><stop offset="70%" stop-color="#ff0ada" stop-opacity="1" style="--darkreader-inline-stopcolor: var(--darkreader-background-ff0ada, #c400a6);" data-darkreader-inline-stopcolor=""></stop></linearGradient></defs><defs><linearGradient id="SvgjsLinearGradient1076" x1="0%" y1="0%" x2="100%" y2="100%"><stop offset="30%" stop-color="#000000" stop-opacity="1" style="--darkreader-inline-stopcolor: var(--darkreader-background-000000, #000000);" data-darkreader-inline-stopcolor=""></stop><stop offset="70%" stop-color="#000000" stop-opacity="1" style="--darkreader-inline-stopcolor: var(--darkreader-background-000000, #000000);" data-darkreader-inline-stopcolor=""></stop></linearGradient></defs><defs><linearGradient id="SvgjsLinearGradient1075" x1="0%" y1="0%" x2="100%" y2="100%"><stop offset="30%" stop-color="#880070" stop-opacity="1" style="--darkreader-inline-stopcolor: var(--darkreader-background-880070, #6d005a);" data-darkreader-inline-stopcolor=""></stop><stop offset="70%" stop-color="#000000" stop-opacity="1" style="--darkreader-inline-stopcolor: var(--darkreader-background-000000, #000000);" data-darkreader-inline-stopcolor=""></stop></linearGradient></defs><defs><linearGradient id="SvgjsLinearGradient1074" x1="0%" y1="0%" x2="100%" y2="100%"><stop offset="30%" stop-color="#880070" stop-opacity="1" style="--darkreader-inline-stopcolor: var(--darkreader-background-880070, #6d005a);" data-darkreader-inline-stopcolor=""></stop><stop offset="70%" stop-color="#c300a4" stop-opacity="1" style="--darkreader-inline-stopcolor: var(--darkreader-background-c300a4, #9c0083);" data-darkreader-inline-stopcolor=""></stop></linearGradient></defs><defs><linearGradient id="SvgjsLinearGradient1073" x1="0%" y1="0%" x2="100%" y2="100%"><stop offset="30%" stop-color="#ff0ada" stop-opacity="1" style="--darkreader-inline-stopcolor: var(--darkreader-background-ff0ada, #c400a6);" data-darkreader-inline-stopcolor=""></stop><stop offset="70%" stop-color="#c300a4" stop-opacity="1" style="--darkreader-inline-stopcolor: var(--darkreader-background-c300a4, #9c0083);" data-darkreader-inline-stopcolor=""></stop></linearGradient></defs><g transform="translate(900, 0)"><path d="M0 636.4C-84 626.2 -168.1 616 -241.9 583.9C-315.6 551.8 -379.1 497.7 -439.1 439.1C-499.1 380.5 -555.7 317.5 -588 243.5C-620.3 169.6 -628.3 84.8 -636.4 0L0 0Z" fill="#e100bf" style="--darkreader-inline-fill: var(--darkreader-background-e100bf, #b40099);" data-darkreader-inline-fill=""></path><path d="M0 477.3C-63 469.7 -126.1 462 -181.4 437.9C-236.7 413.8 -284.3 373.3 -329.3 329.3C-374.3 285.4 -416.7 238.1 -441 182.7C-465.2 127.2 -471.2 63.6 -477.3 0L0 0Z" fill="#a5008a" style="--darkreader-inline-fill: var(--darkreader-background-a5008a, #84006e);" data-darkreader-inline-fill=""></path><path d="M0 318.2C-42 313.1 -84 308 -120.9 291.9C-157.8 275.9 -189.6 248.8 -219.6 219.6C-249.6 190.3 -277.8 158.7 -294 121.8C-310.1 84.8 -314.2 42.4 -318.2 0L0 0Z" fill="#6b0058" style="--darkreader-inline-fill: var(--darkreader-background-6b0058, #560046);" data-darkreader-inline-fill=""></path><path d="M0 159.1C-21 156.6 -42 154 -60.5 146C-78.9 137.9 -94.8 124.4 -109.8 109.8C-124.8 95.1 -138.9 79.4 -147 60.9C-155.1 42.4 -157.1 21.2 -159.1 0L0 0Z" fill="#000000" style="--darkreader-inline-fill: var(--darkreader-background-000000, #000000);" data-darkreader-inline-fill=""></path></g><g transform="translate(0, 900)"><path d="M0 -636.4C59 -555.1 118.1 -473.8 181 -437C244 -400.2 310.9 -407.9 386.1 -386.1C461.3 -364.2 544.8 -312.8 588 -243.5C631.1 -174.3 633.7 -87.1 636.4 0L0 0Z" fill="#e100bf" style="--darkreader-inline-fill: var(--darkreader-background-e100bf, #b40099);" data-darkreader-inline-fill=""></path><path d="M0 -477.3C44.3 -416.3 88.5 -355.3 135.8 -327.7C183 -300.2 233.1 -305.9 289.6 -289.6C346 -273.2 408.6 -234.6 441 -182.7C473.3 -130.7 475.3 -65.3 477.3 0L0 0Z" fill="#a5008a" style="--darkreader-inline-fill: var(--darkreader-background-a5008a, #84006e);" data-darkreader-inline-fill=""></path><path d="M0 -318.2C29.5 -277.5 59 -236.9 90.5 -218.5C122 -200.1 155.4 -204 193 -193C230.6 -182.1 272.4 -156.4 294 -121.8C315.5 -87.1 316.9 -43.6 318.2 0L0 0Z" fill="#6b0058" style="--darkreader-inline-fill: var(--darkreader-background-6b0058, #560046);" data-darkreader-inline-fill=""></path><path d="M0 -159.1C14.8 -138.8 29.5 -118.4 45.3 -109.2C61 -100.1 77.7 -102 96.5 -96.5C115.3 -91.1 136.2 -78.2 147 -60.9C157.8 -43.6 158.4 -21.8 159.1 0L0 0Z" fill="#000000" style="--darkreader-inline-fill: var(--darkreader-background-000000, #000000);" data-darkreader-inline-fill=""></path></g></svg><style>@media (prefers-color-scheme: light) { :root { filter: none; } }
@media (prefers-color-scheme: dark) { :root { filter: none; } }
</style></svg>